HIERARCHY
ROOT Bip001_Pelvis
{
  OFFSET 33.2923 95.8902 -28.781
  CHANNELS 6 Xposition Yposition Zposition Zrotation Xrotation Yrotation
  JOINT Bip001_Spine
  {
    OFFSET 1.4188e-005 10.2191 -0.0116013
    CHANNELS 3 Zrotation Xrotation Yrotation
    JOINT Bip001_L_Thigh
    {
      OFFSET 11.0458 -10.2192 0.0116197
      CHANNELS 3 Zrotation Xrotation Yrotation
      JOINT Bip001_L_Calf
      {
        OFFSET -0.707118 -44.0221 0.360014
        CHANNELS 3 Zrotation Xrotation Yrotation
        JOINT Bip001_L_Foot
        {
          OFFSET -0.651902 -40.5938 -3.56146
          CHANNELS 3 Zrotation Xrotation Yrotation
          JOINT Bip001_L_Toe0
          {
            OFFSET 0.0530839 -10.2181 13.1504
            CHANNELS 3 Zrotation Xrotation Yrotation
            End Site
            {
              OFFSET -1.02532e-005 0 7.55606
            }
          }
        }
      }
    }
    JOINT Bip001_R_Thigh
    {
      OFFSET -11.0458 -10.2191 0.0115893
      CHANNELS 3 Zrotation Xrotation Yrotation
      JOINT Bip001_R_Calf
      {
        OFFSET 0.706994 -44.0221 0.35984
        CHANNELS 3 Zrotation Xrotation Yrotation
        JOINT Bip001_R_Foot
        {
          OFFSET 0.651786 -40.5938 -3.5613
          CHANNELS 3 Zrotation Xrotation Yrotation
          JOINT Bip001_R_Toe0
          {
            OFFSET -0.0531479 -10.2181 13.1504
            CHANNELS 3 Zrotation Xrotation Yrotation
            End Site
            {
              OFFSET -1.02894e-005 0 7.55606
            }
          }
        }
      }
    }
    JOINT Bip001_Spine1
    {
      OFFSET 1.87041e-005 14.5736 1.08638
      CHANNELS 3 Zrotation Xrotation Yrotation
      JOINT Bip001_Spine2
      {
        OFFSET 2.24614e-005 14.5058 -1.69078
        CHANNELS 3 Zrotation Xrotation Yrotation
        JOINT Bip001_Neck
        {
          OFFSET 2.20278e-005 15.3945 -0.489414
          CHANNELS 3 Zrotation Xrotation Yrotation
          JOINT Bip001_L_Clavicle
          {
            OFFSET 6.06036 -0.000579998 0.00836775
            CHANNELS 3 Zrotation Xrotation Yrotation
            JOINT Bip001_L_UpperArm
            {
              OFFSET 11.5509 -0.0600302 0.00193952
              CHANNELS 3 Zrotation Xrotation Yrotation
              JOINT Bip001_L_Forearm
              {
                OFFSET 25.9523 0.0806089 -2.15551
                CHANNELS 3 Zrotation Xrotation Yrotation
                JOINT Bip001_L_Hand
                {
                  OFFSET 32.2476 0.153767 1.63968
                  CHANNELS 3 Zrotation Xrotation Yrotation
                  JOINT Bip001_L_Finger0
                  {
                    OFFSET 6.04639 -2.20976 5.90322
                    CHANNELS 3 Zrotation Xrotation Yrotation
                    End Site
                    {
                      OFFSET 4.22376 -1.43895 0.606486
                    }
                  }
                  JOINT Bip001_L_Finger1
                  {
                    OFFSET 11.0826 -0.704819 -0.198153
                    CHANNELS 3 Zrotation Xrotation Yrotation
                    End Site
                    {
                      OFFSET 6.20028 -0.397518 -0.0787166
                    }
                  }
                }
              }
            }
          }
          JOINT Bip001_R_Clavicle
          {
            OFFSET -6.06036 -0.000563197 0.00835105
            CHANNELS 3 Zrotation Xrotation Yrotation
            JOINT Bip001_R_UpperArm
            {
              OFFSET -11.5509 -0.0599978 0.00190698
              CHANNELS 3 Zrotation Xrotation Yrotation
              JOINT Bip001_R_Forearm
              {
                OFFSET -25.9523 0.080682 -2.1559
                CHANNELS 3 Zrotation Xrotation Yrotation
                JOINT Bip001_R_Hand
                {
                  OFFSET -32.2476 0.153858 1.63991
                  CHANNELS 3 Zrotation Xrotation Yrotation
                  JOINT Bip001_R_Finger0
                  {
                    OFFSET -6.04641 -2.20974 5.90321
                    CHANNELS 3 Zrotation Xrotation Yrotation
                    End Site
                    {
                      OFFSET -4.22376 -1.43894 0.606474
                    }
                  }
                  JOINT Bip001_R_Finger1
                  {
                    OFFSET -11.0826 -0.704789 -0.198184
                    CHANNELS 3 Zrotation Xrotation Yrotation
                    End Site
                    {
                      OFFSET -6.20028 -0.397501 -0.0787338
                    }
                  }
                }
              }
            }
          }
          JOINT Bip001_Head
          {
            OFFSET 1.09673e-005 11.2744 2.05948
            CHANNELS 3 Zrotation Xrotation Yrotation
            End Site
            {
              OFFSET 2.89576e-005 20.8808 -2.77728e-005
            }
          }
        }
      }
    }
  }
}
MOTION
Frames:	8
Frame Time:	0.04
32.3035 95.9013 -28.2616 0.802143 -1.08754 3.92263 -0.18869 2.73772 -0.040204 5.13663 -3.2782 6.73828 -0.576816 7.41731 -13.7443 3.17557 -2.75625 -0.0744997 -3.47701 -3.62609 5.23257 -3.02705 -2.38233 -4.65147 -0.433889 10.5156 -0.093719 -5.40624 -10.2239 2.96643 2.13027 -7.2513 2.217 -0.376474 5.47555 -0.071522 -0.376288 5.47556 -0.0714887 -1.97905 2.17542 -2.05132 -21.3596 -0.0365757 -4.59698 -50.0715 40.0338 -2.46509 12.4417 -0.179942 -26.4825 8.71281 1.21607 -2.16807 6.36111e-015 -6.36111e-015 -0 6.36111e-015 -1.27222e-014 -3.18055e-015 27.0422 6.37344 22.4135 49.8427 11.9765 4.48391 -117.714 15.1216 75.7015 -18.3388 -21.1048 -34.5832 0 3.97569e-016 -0 -1.59028e-015 1.98785e-015 -0 3.73671 12.1945 -3.79245 
32.2488 95.895 -28.4015 0.686899 -1.00261 4.70448 -0.174593 2.7062 -0.106976 5.31779 -3.74787 5.81766 -0.735792 7.7211 -13.6087 3.46309 -2.51851 -0.0905411 -3.39939 -3.82689 5.1773 -2.82764 -2.38223 -4.96891 -0.46592 10.448 -0.000373254 -5.56542 -10.0937 2.52059 2.14764 -7.30438 2.22375 -0.344698 5.41269 -0.206026 -0.344699 5.41271 -0.206027 -1.98216 2.10959 -2.03463 -21.3049 -0.0642629 -4.27842 -50.0616 39.7415 -2.58026 12.5115 0.285738 -26.5618 9.0457 1.05381 -2.12618 3.53112e-031 -6.36111e-015 3.18055e-015 3.18055e-015 -9.54167e-015 3.18055e-015 26.1134 6.58554 23.649 49.0655 10.1885 9.62504 -123.839 9.77574 80.5937 -28.6838 -28.9088 -42.5599 3.18055e-015 0 -0 3.18055e-015 9.93924e-017 -0 3.73399 12.1569 -3.77567 
32.2874 95.8959 -28.3181 1.045 -1.31216 4.43338 -0.267968 2.75923 0.0216765 4.96746 -2.99677 7.16386 -0.519126 6.98614 -14.8641 3.52073 -2.18605 -0.103773 -3.33037 -3.91505 5.08807 -3.0963 -2.30549 -4.84416 -0.483394 10.9075 0.113558 -5.61318 -10.3156 2.38145 2.15524 -7.32581 2.23431 -0.537155 5.51832 0.0562405 -0.537546 5.51833 0.0562839 -2.00307 2.1987 -2.00326 -21.3371 -0.2153 -4.06068 -50.0165 39.5307 -2.72499 12.4272 0.194583 -26.4519 8.68944 0.98269 -2.13374 0 1.27222e-014 -0 3.18055e-015 1.59028e-014 -0 25.2289 6.70686 25.1472 47.84 9.64721 15.1028 -127.114 6.80877 82.8117 -45.7991 -34.6447 -52.4687 -1.59028e-014 -1.59028e-015 -1.59028e-015 -1.59028e-014 0 1.59028e-015 3.61811 12.0461 -3.71373 
32.2976 95.8948 -28.2869 1.1739 -1.45865 4.4208 -0.288425 2.77005 0.118131 4.82615 -2.68814 7.86249 -0.424121 6.6833 -15.7086 3.68336 -1.96395 -0.111122 -3.27278 -4.05289 5.03017 -3.19222 -2.21458 -4.99506 -0.533555 11.0651 0.186669 -5.61386 -10.4153 2.3856 2.16177 -7.3431 2.2359 -0.592881 5.54172 0.250337 -0.588233 5.54174 0.250909 -2.1145 2.19724 -2.0204 -21.3718 -0.272654 -3.83211 -49.8781 39.67 -2.82215 12.1846 -0.525797 -26.3227 8.03194 1.12641 -1.90408 6.36111e-015 -3.18055e-015 -3.18055e-015 6.36111e-015 -6.36111e-015 -6.36111e-015 24.309 6.85651 26.5972 46.1654 11.0208 20.9072 -126.038 6.77107 81.8284 -61.8556 -31.5061 -61.3925 -9.54166e-015 9.54166e-015 3.18055e-015 -1.27222e-014 9.54167e-015 6.36111e-015 3.58102 12.1176 -3.75284 
32.0354 95.8917 -28.5291 0.369409 -0.978117 5.28128 -0.133979 2.6571 0.076439 5.8642 -4.12525 6.45417 -0.891336 8.07437 -14.9956 3.87064 -2.33793 -0.108065 -3.24403 -4.08578 5.02091 -2.21476 -2.25485 -4.81832 -0.64395 10.1328 0.106829 -5.85276 -9.74342 1.61782 2.16011 -7.32705 2.21284 -0.278654 5.31384 0.159494 -0.27535 5.31387 0.159634 -1.96553 2.34331 -2.12509 -21.529 -0.473902 -3.7133 -49.8695 39.7147 -2.84547 12.1737 -0.579286 -26.1249 7.88929 1.06229 -1.87612 3.18055e-015 -3.18055e-015 -0 3.18055e-015 0 -3.18055e-015 22.7198 6.74672 28.2064 44.5196 13.1795 26.7957 -126.55 9.36924 80.9789 -73.9458 -24.6679 -64.9432 -6.36111e-015 -6.36111e-015 1.59028e-015 -3.18055e-015 -9.54167e-015 3.18055e-015 3.40775 11.973 -3.75396 
31.842 95.8866 -28.6472 -0.135531 -0.733377 5.892 -0.0499526 2.60939 0.102901 6.54587 -4.97846 5.76861 -1.19374 8.8931 -14.8542 4.06285 -2.60385 -0.10562 -3.23615 -4.08014 5.0474 -1.55437 -2.22165 -4.81146 -0.754686 9.52785 -0.0246926 -5.96309 -9.31905 1.21008 2.16231 -7.32895 2.21941 -0.0974115 5.21867 0.206364 -0.10117 5.21869 0.207097 -1.82752 2.49348 -2.34779 -21.8082 -0.65393 -3.69162 -49.7532 39.5959 -2.73078 12.077 -0.633905 -26.1476 7.74287 1.12508 -1.83415 -3.18055e-015 6.36111e-015 -0 0 3.18056e-015 -0 21.374 6.68948 29.8327 41.5306 15.9233 32.4397 -125.919 14.0435 78.9895 -77.901 -19.3825 -63.1495 1.05934e-030 1.27222e-014 -4.77083e-015 4.77083e-015 6.36111e-015 -6.36111e-015 3.31531 11.7871 -3.88086 
31.9669 95.8747 -28.4791 0.450202 -1.26417 5.50206 -0.152221 2.75594 0.253619 5.8684 -3.87549 7.21966 -0.806909 7.92736 -16.2937 4.11221 -2.13236 -0.123005 -3.18141 -4.26951 4.97067 -2.16771 -2.02176 -5.26098 -0.72833 10.2029 0.110517 -5.8506 -9.85453 1.63216 2.16318 -7.34062 2.21666 -0.317222 5.51116 0.515474 -0.317222 5.51116 0.515472 -2.59825 1.81533 -2.13668 -21.181 -0.0433033 -3.20922 -49.6569 39.5271 -2.91022 11.9625 -0.618663 -26.1158 7.78222 1.11371 -1.7755 -3.18055e-015 -3.18055e-015 -0 -1.59028e-015 0 -0 20.4382 7.18462 31.1919 37.8339 18.6208 37.9974 -124.225 19.9481 76.5684 -81.2484 -17.031 -62.6044 -2.38542e-015 0 7.95139e-016 -2.38542e-015 -3.18056e-015 7.95139e-016 4.20594 12.408 -4.21462 
31.7617 95.8741 -28.5898 -0.0787225 -1.06665 5.90383 -0.0510593 2.72823 0.299511 6.54816 -4.66883 6.59967 -1.10388 8.74168 -16.0296 4.59946 -2.15637 -0.136574 -3.00603 -4.46929 4.82294 -1.48987 -1.99636 -5.02105 -0.829737 9.59559 0.0326695 -5.99454 -9.40333 1.14954 2.16312 -7.34653 2.21173 -0.112487 5.45618 0.601901 -0.114379 5.45618 0.602021 -2.22892 1.96155 -2.34325 -21.5612 -0.25739 -3.10565 -49.7051 39.508 -2.74711 12.0314 -0.366346 -26.0413 7.91442 1.08756 -1.81621 1.59028e-015 3.18055e-015 -6.36111e-015 1.59028e-015 3.18056e-015 -3.18055e-015 18.3148 6.85074 32.8498 32.4027 21.4479 43.6932 -120.579 26.6541 72.7212 -82.3835 -17.3206 -63.1954 -1.59028e-015 0 -7.95139e-016 -1.59028e-015 0 -0 3.6132 11.9985 -4.10295 
